<svg width="448" height="448" viewBox="0 0 448 448" fill="none" xmlns="http://www.w3.org/2000/svg">
<rect y="6.10352e-05" width="448" height="448" rx="83" fill="black"/>
<mask id="mask0_1_2" style="mask-type:alpha" maskUnits="userSpaceOnUse" x="0" y="0" width="448" height="448">
<rect y="6.10352e-05" width="448" height="448" rx="83" fill="black"/>
</mask>
<g mask="url(#mask0_1_2)">
<path opacity="0.2" d="M-20.9584 -8.79778H82.5212L221.102 329.448H226.572L365.153 -8.79778H468.632V458H387.49V137.304H383.159L254.151 456.632H193.522L64.5148 136.621H60.1842V458H-20.9584V-8.79778Z" fill="white"/>
</g>
<path d="M94.9332 315V133.182H213.186V160.792H127.87V210.153H207.06V237.763H127.87V287.39H213.896V315H94.9332ZM246.789 315V133.182H279.725V287.39H359.804V315H246.789Z" fill="white"/>
</svg>
