<svg width="910" height="1737" viewBox="0 0 910 1737" fill="none" xmlns="http://www.w3.org/2000/svg">
<path d="M483.793 93.0312C600.217 203.764 891.278 454.723 840.828 588.999C824.528 540.101 729.061 534.668 769.422 612.284C818.837 666.615 912.235 802.444 890.503 911.106C863.337 1046.93 741.48 1113.68 769.422 1356.62C735.529 1311.35 683.578 1188.51 746.913 1059.35C762.518 1027.53 713.537 911.106 658.429 1046.93L483.793 93.0312Z" fill="#7A24E8"/>
<path d="M483.793 93.0312C600.217 203.764 891.278 454.723 840.828 588.999C820.684 522.508 750.736 372.294 632.095 303.371C683.285 388.749 700.354 520.852 669.35 636.345L483.793 93.0312Z" fill="#4AA6DA"/>
<path d="M483.793 93.0312C600.217 203.764 891.278 454.723 840.828 588.999C824.528 540.101 729.061 534.668 769.422 612.284C818.837 666.615 912.235 802.444 890.503 911.106C863.337 1046.93 741.48 1113.68 769.422 1356.62C735.529 1311.35 683.578 1188.51 746.913 1059.35C762.518 1027.53 713.537 911.106 658.429 1046.93" stroke="#001D3D" stroke-width="31.0465"/>
<path d="M460.564 75.9561C307.143 180.479 -1.459 447.893 16.548 762.084C40.6092 661.959 150.824 533.116 84.8505 791.578C65.9638 865.054 64.9807 1054.54 212.141 1224.68C212.141 1067.89 249.396 782.419 295.966 981.737L460.564 75.9561Z" fill="#4AA6DA" stroke="#001D3D" stroke-width="31.0465"/>
<path d="M16.5446 762.083C47.6624 665.825 147.082 547.771 84.8489 791.577C65.9623 865.054 64.9791 1054.54 212.14 1224.68C212.14 1067.89 249.394 782.419 295.964 981.737C187.7 518.368 268.314 380.222 285.153 342.179C306.109 294.833 325.772 252.662 334.051 225.755C181.004 324.61 57.9327 621.369 16.5446 762.083Z" fill="#7A24E8"/>
<path d="M475.258 55.7754C321.836 160.299 -1.46055 447.893 16.5464 762.083C40.6077 661.958 150.823 533.115 84.8489 791.577C65.9623 865.054 64.9791 1054.54 212.14 1224.68C212.14 1067.89 249.394 782.419 295.964 981.737" stroke="#001D3D" stroke-width="31.0465"/>
<path d="M516.653 1425.7C663.192 1328.84 622.987 1184.83 577.97 1126.1H360.645C279.924 1238.65 255.863 1341.1 277.596 1410.96C295.722 1469.22 352.721 1533.42 391.405 1576.99L391.405 1576.99C399.102 1585.66 406.074 1593.51 411.871 1600.34C441.365 1635.08 439.814 1677.18 434.38 1695.03C450.421 1682.87 484.365 1651.25 491.816 1622.07C501.13 1585.59 493.369 1537.47 463.098 1483.14C432.828 1428.81 394.02 1301.52 463.098 1292.2C518.361 1284.75 521.828 1378.1 516.653 1425.7Z" fill="#FFC76B" stroke="black" stroke-width="4.65697"/>
<path d="M463.097 1483.14C493.368 1537.47 501.129 1585.59 491.815 1622.07C484.364 1651.26 450.42 1682.87 434.379 1695.03C488.301 1571.29 442.065 1530.5 415.771 1507.3C412.544 1504.46 409.617 1501.88 407.213 1499.44C351.329 1442.78 337.619 1431.14 325.2 1378.36C312.782 1325.58 369.442 1134.01 478.881 1148.61C588.319 1163.22 573.634 1285.85 537.476 1371.83C529.885 1389.88 522.762 1406.82 517.97 1421.52C527.358 1392.1 555.32 1303.98 533.988 1269.69C512.256 1234.77 481.985 1233.21 478.881 1233.21C474.47 1233.21 447.856 1232.34 421.445 1250.29C413.352 1255.79 403 1265.81 396.607 1274.35C390.784 1282.13 383.032 1291.8 379.271 1302.29C367.028 1336.44 366.852 1369.04 384.704 1399.31C397.64 1423.37 458.751 1479.41 463.097 1483.14Z" fill="#FCA311"/>
<path d="M516.651 1425.7C521.826 1378.1 518.359 1284.75 463.096 1292.2C394.018 1301.52 432.826 1428.81 463.096 1483.14C458.75 1479.41 397.639 1423.37 384.703 1399.31C366.851 1369.04 367.027 1336.44 379.27 1302.29C383.031 1291.8 390.783 1282.13 396.607 1274.35C403 1265.81 413.351 1255.79 421.444 1250.29C447.855 1232.34 474.47 1233.21 478.88 1233.21C481.984 1233.21 512.255 1234.77 533.987 1269.69C555.319 1303.98 527.357 1392.1 517.969 1421.52C517.507 1422.93 517.067 1424.33 516.651 1425.7Z" fill="#CC440A"/>
<path d="M516.653 1425.7C663.192 1328.84 622.987 1184.83 577.97 1126.1H360.645C279.924 1238.65 255.863 1341.1 277.596 1410.96C295.722 1469.22 352.721 1533.42 391.405 1576.99L391.405 1576.99C399.102 1585.66 406.074 1593.51 411.871 1600.34C441.365 1635.08 439.814 1677.18 434.38 1695.03C450.421 1682.87 484.365 1651.25 491.816 1622.07C501.13 1585.59 493.369 1537.47 463.098 1483.14C432.828 1428.81 394.02 1301.52 463.098 1292.2C518.361 1284.75 521.828 1378.1 516.653 1425.7Z" stroke="#001D3D" stroke-width="31.0465"/>
<path d="M342.032 818.262H320.676C322.684 826.153 324.792 833.998 327 841.796C336.625 875.786 348.135 908.868 361.398 940.895H423.491H516.26H578.353C591.481 909.193 602.892 876.459 612.456 842.833C614.771 834.694 616.978 826.503 619.075 818.262H596.607H556.982H382.769H342.032Z" fill="#9B2226"/>
<path d="M556.982 818.262H382.77C393.529 860.552 407.186 901.52 423.492 940.895H516.26C532.566 901.52 546.223 860.552 556.982 818.262Z" fill="#FCA311"/>
<path d="M397.209 160.076C340.307 267.34 304.117 389.396 294.629 519.688C292.975 542.392 292.133 565.347 292.133 588.517C292.133 596.081 292.223 603.622 292.401 611.139C293.004 636.553 294.622 661.691 297.21 686.507C301.912 731.583 309.819 775.595 320.674 818.261H342.031H382.767H556.98H596.605H619.073C630.052 775.109 638.015 730.581 642.697 684.966C645.142 661.143 646.692 637.024 647.31 612.65C647.513 604.633 647.615 596.588 647.615 588.517C647.615 564.807 646.733 541.323 645.002 518.101C635.337 388.406 599.21 266.905 542.539 160.076C529.698 135.869 515.802 112.416 500.92 89.7915C491.002 74.7137 480.647 60.004 469.874 45.6846C459.101 60.004 448.746 74.7137 438.827 89.7915C423.945 112.416 410.05 135.869 397.209 160.076Z" fill="#E5E5E5"/>
<path d="M320.674 818.261H342.031H382.767H556.98H596.605H619.073M320.674 818.261C309.819 775.595 301.912 731.583 297.21 686.507C294.622 661.691 293.004 636.553 292.401 611.139C292.223 603.622 292.133 596.081 292.133 588.517C292.133 565.347 292.975 542.392 294.629 519.688C304.117 389.396 340.307 267.34 397.209 160.076C410.05 135.869 423.945 112.416 438.827 89.7915C448.746 74.7137 459.101 60.004 469.874 45.6846C480.647 60.004 491.002 74.7137 500.92 89.7915C515.802 112.416 529.698 135.869 542.539 160.076C599.21 266.905 635.337 388.406 645.002 518.101C646.733 541.323 647.615 564.807 647.615 588.517C647.615 596.588 647.513 604.633 647.31 612.65C646.692 637.024 645.142 661.143 642.697 684.966C638.015 730.581 630.052 775.109 619.073 818.261M320.674 818.261C322.682 826.153 324.791 833.998 326.999 841.795C336.623 875.785 348.133 908.867 361.396 940.895H423.489H516.258H578.351C591.479 909.193 602.89 876.458 612.454 842.833C614.769 834.694 616.976 826.503 619.073 818.261" stroke="#001D3D" stroke-width="31.0465"/>
<path d="M650.642 566.289C649.772 600.608 647.59 634.568 644.147 668.11C637.554 732.336 626.342 795.032 610.882 855.791C607.93 867.395 604.822 878.928 601.562 890.387C625.802 932.664 641.949 979.227 648.184 1028.46C650.092 1043.52 651.072 1058.84 651.072 1074.36V1074.88C664.345 1060.21 676.492 1044.7 687.4 1028.46C721.853 977.155 743.926 918.51 749.949 855.791C751.056 844.265 751.62 832.601 751.62 820.82C751.62 771.406 741.684 724.058 723.492 680.269C706.192 638.628 681.427 600.206 650.642 566.289Z" fill="#E5E5E5" stroke="#001D3D" stroke-width="31.0465"/>
<path d="M295.827 670.28C292.182 635.34 289.904 599.946 289.055 564.162C257.104 599.376 231.643 639.443 214.285 682.925C197.348 725.355 188.129 771.037 188.129 818.635C188.129 831.161 188.767 843.555 190.017 855.792C196.429 918.579 218.932 977.232 253.828 1028.46C264.351 1043.91 276.001 1058.68 288.677 1072.69V1072.17C288.677 1057.4 289.565 1042.82 291.295 1028.46C297.291 978.702 313.406 931.638 337.772 888.928C334.663 877.949 331.693 866.902 328.866 855.792C313.58 795.717 302.447 733.748 295.827 670.28Z" fill="#E5E5E5" stroke="#001D3D" stroke-width="31.0465"/>
<path d="M397.209 160.076L410.922 167.35L410.922 167.35L397.209 160.076ZM294.629 519.688L279.147 518.56H279.147L294.629 519.688ZM645.002 518.101L660.483 516.948V516.948L645.002 518.101ZM542.539 160.076L528.826 167.35L528.826 167.35L542.539 160.076ZM292.401 611.139L276.882 611.507L276.882 611.507L292.401 611.139ZM647.31 612.65L662.828 613.043V613.043L647.31 612.65ZM642.697 684.966L658.139 686.551L642.697 684.966ZM297.21 686.507L312.65 684.896L312.65 684.896L297.21 686.507ZM320.674 818.261L305.63 822.089L308.606 833.785H320.674V818.261ZM619.073 818.261V833.785H631.141L634.117 822.089L619.073 818.261ZM500.92 89.7915L513.89 81.2607L513.889 81.2606L500.92 89.7915ZM438.827 89.7915L425.858 81.2606L425.858 81.2607L438.827 89.7915ZM469.874 45.6846L482.279 36.3521L469.874 19.8639L457.469 36.3521L469.874 45.6846ZM383.496 152.801C325.587 261.964 288.792 386.113 279.147 518.56L310.111 520.815C319.442 392.68 355.028 272.716 410.922 167.35L383.496 152.801ZM307.656 588.517C307.656 565.724 308.485 543.145 310.111 520.815L279.147 518.56C277.466 541.64 276.61 564.971 276.61 588.517H307.656ZM660.483 516.948C650.657 385.105 613.926 261.521 556.252 152.801L528.826 167.35C584.493 272.288 620.016 391.706 629.522 519.255L660.483 516.948ZM629.522 519.255C631.224 542.093 632.092 565.193 632.092 588.517H663.138C663.138 564.422 662.242 540.553 660.483 516.948L629.522 519.255ZM276.61 588.517C276.61 596.205 276.701 603.868 276.882 611.507L307.92 610.771C307.745 603.376 307.656 595.958 307.656 588.517H276.61ZM662.828 613.043C663.034 604.895 663.138 596.719 663.138 588.517H632.092C632.092 596.457 631.991 604.371 631.791 612.257L662.828 613.043ZM658.139 686.551C660.625 662.332 662.2 637.816 662.828 613.043L631.791 612.257C631.184 636.233 629.659 659.954 627.255 683.381L658.139 686.551ZM276.882 611.507C277.495 637.337 279.14 662.89 281.771 688.117L312.65 684.896C310.104 660.493 308.513 635.769 307.92 610.771L276.882 611.507ZM320.674 833.785H342.031V802.738H320.674V833.785ZM281.771 688.117C286.551 733.943 294.59 778.696 305.63 822.089L335.718 814.434C325.047 772.494 317.273 729.224 312.65 684.896L281.771 688.117ZM596.605 833.785H619.073V802.738H596.605V833.785ZM634.117 822.089C645.283 778.201 653.379 732.924 658.139 686.551L627.255 683.381C622.65 728.238 614.821 772.016 604.029 814.434L634.117 822.089ZM382.767 833.785H556.98V802.738H382.767V833.785ZM342.031 833.785H382.767V802.738H342.031V833.785ZM556.98 833.785H596.605V802.738H556.98V833.785ZM556.252 152.801C543.184 128.166 529.04 104.294 513.89 81.2607L487.951 98.3223C502.565 120.538 516.212 143.572 528.826 167.35L556.252 152.801ZM425.858 81.2607C410.708 104.294 396.564 128.166 383.496 152.801L410.922 167.35C423.535 143.572 437.183 120.538 451.797 98.3223L425.858 81.2607ZM513.889 81.2606C503.793 65.9109 493.249 50.9338 482.279 36.3521L457.469 55.0171C468.045 69.0742 478.212 83.5165 487.951 98.3224L513.889 81.2606ZM457.469 36.3521C446.499 50.9338 435.955 65.9109 425.858 81.2606L451.796 98.3224C461.536 83.5165 471.703 69.0742 482.279 55.0171L457.469 36.3521Z" fill="#001D3D"/>
<mask id="mask0_176_666" style="mask-type:alpha" maskUnits="userSpaceOnUse" x="360" y="0" width="218" height="257">
<mask id="path-18-inside-1_176_666" fill="white">
<path fill-rule="evenodd" clip-rule="evenodd" d="M360.434 75.1775C360.434 66.6043 367.384 59.6543 375.957 59.6543H391.48H407.003H422.527H438.05H453.573C462.146 59.6543 469.096 66.6043 469.096 75.1775V210.23C469.096 214.516 465.621 217.991 461.335 217.991C457.048 217.991 453.573 214.516 453.573 210.23V197.811C453.573 193.525 450.098 190.05 445.811 190.05C441.525 190.05 438.05 193.525 438.05 197.811V249.038C438.05 253.325 434.575 256.8 430.288 256.8C426.002 256.8 422.527 253.325 422.527 249.038V162.108C422.527 157.821 419.052 154.346 414.765 154.346C410.478 154.346 407.003 157.821 407.003 162.108V219.544C407.003 223.83 403.528 227.305 399.242 227.305C394.955 227.305 391.48 223.83 391.48 219.544V176.079C391.48 171.792 388.005 168.317 383.718 168.317C379.432 168.317 375.957 171.792 375.957 176.079V210.23C375.957 214.516 372.482 217.991 368.195 217.991C363.909 217.991 360.434 214.516 360.434 210.23V75.1775Z"/>
</mask>
<path fill-rule="evenodd" clip-rule="evenodd" d="M360.434 75.1775C360.434 66.6043 367.384 59.6543 375.957 59.6543H391.48H407.003H422.527H438.05H453.573C462.146 59.6543 469.096 66.6043 469.096 75.1775V210.23C469.096 214.516 465.621 217.991 461.335 217.991C457.048 217.991 453.573 214.516 453.573 210.23V197.811C453.573 193.525 450.098 190.05 445.811 190.05C441.525 190.05 438.05 193.525 438.05 197.811V249.038C438.05 253.325 434.575 256.8 430.288 256.8C426.002 256.8 422.527 253.325 422.527 249.038V162.108C422.527 157.821 419.052 154.346 414.765 154.346C410.478 154.346 407.003 157.821 407.003 162.108V219.544C407.003 223.83 403.528 227.305 399.242 227.305C394.955 227.305 391.48 223.83 391.48 219.544V176.079C391.48 171.792 388.005 168.317 383.718 168.317C379.432 168.317 375.957 171.792 375.957 176.079V210.23C375.957 214.516 372.482 217.991 368.195 217.991C363.909 217.991 360.434 214.516 360.434 210.23V75.1775Z" fill="#FCA311"/>
<path d="M391.48 58.102H375.957V61.2066H391.48V58.102ZM407.003 58.102H391.48V61.2066H407.003V58.102ZM422.527 58.102H407.003V61.2066H422.527V58.102ZM438.05 58.102H422.527V61.2066H438.05V58.102ZM453.573 58.102H438.05V61.2066H453.573V58.102ZM467.544 75.1775V210.23H470.649V75.1775H467.544ZM455.125 210.23V197.811H452.021V210.23H455.125ZM439.602 249.038V197.811H436.497V249.038H439.602ZM420.974 162.108V249.038H424.079V162.108H420.974ZM408.556 219.544V162.108H405.451V219.544H408.556ZM389.928 176.079V219.544H393.032V176.079H389.928ZM377.509 210.23V176.079H374.405V210.23H377.509ZM358.881 75.1775V210.23H361.986V75.1775H358.881ZM368.195 216.439C364.766 216.439 361.986 213.659 361.986 210.23H358.881C358.881 215.374 363.051 219.544 368.195 219.544V216.439ZM374.405 210.23C374.405 213.659 371.625 216.439 368.195 216.439V219.544C373.339 219.544 377.509 215.374 377.509 210.23H374.405ZM383.718 166.765C378.575 166.765 374.405 170.935 374.405 176.079H377.509C377.509 172.649 380.289 169.869 383.718 169.869V166.765ZM393.032 176.079C393.032 170.935 388.862 166.765 383.718 166.765V169.869C387.148 169.869 389.928 172.649 389.928 176.079H393.032ZM399.242 225.753C395.812 225.753 393.032 222.973 393.032 219.544H389.928C389.928 224.688 394.098 228.858 399.242 228.858V225.753ZM405.451 219.544C405.451 222.973 402.671 225.753 399.242 225.753V228.858C404.386 228.858 408.556 224.688 408.556 219.544H405.451ZM414.765 152.794C409.621 152.794 405.451 156.964 405.451 162.108H408.556C408.556 158.678 411.336 155.898 414.765 155.898V152.794ZM424.079 162.108C424.079 156.964 419.909 152.794 414.765 152.794V155.898C418.194 155.898 420.974 158.678 420.974 162.108H424.079ZM430.288 255.247C426.859 255.247 424.079 252.467 424.079 249.038H420.974C420.974 254.182 425.144 258.352 430.288 258.352V255.247ZM445.811 188.497C440.667 188.497 436.497 192.667 436.497 197.811H439.602C439.602 194.382 442.382 191.602 445.811 191.602V188.497ZM455.125 197.811C455.125 192.667 450.955 188.497 445.811 188.497V191.602C449.241 191.602 452.021 194.382 452.021 197.811H455.125ZM461.335 216.439C457.905 216.439 455.125 213.659 455.125 210.23H452.021C452.021 215.374 456.191 219.544 461.335 219.544V216.439ZM467.544 210.23C467.544 213.659 464.764 216.439 461.335 216.439V219.544C466.479 219.544 470.649 215.374 470.649 210.23H467.544ZM453.573 61.2066C461.289 61.2066 467.544 67.4616 467.544 75.1775H470.649C470.649 65.747 463.004 58.102 453.573 58.102V61.2066ZM436.497 249.038C436.497 252.467 433.717 255.247 430.288 255.247V258.352C435.432 258.352 439.602 254.182 439.602 249.038H436.497ZM375.957 58.102C366.526 58.102 358.881 65.747 358.881 75.1775H361.986C361.986 67.4616 368.241 61.2066 375.957 61.2066V58.102Z" fill="#001D3D" mask="url(#path-18-inside-1_176_666)"/>
<mask id="path-20-inside-2_176_666" fill="white">
<path fill-rule="evenodd" clip-rule="evenodd" d="M469.098 16.1893C469.098 7.61601 476.048 0.666016 484.621 0.666016H500.144H515.667H531.191H546.714H562.237C570.81 0.666016 577.76 7.61601 577.76 16.1893V151.241C577.76 155.528 574.285 159.003 569.999 159.003C565.712 159.003 562.237 155.528 562.237 151.242V138.823C562.237 134.536 558.762 131.061 554.476 131.061C550.189 131.061 546.714 134.536 546.714 138.823V190.05C546.714 194.336 543.239 197.811 538.952 197.811C534.666 197.811 531.191 194.336 531.191 190.05L531.191 103.119C531.191 98.8328 527.716 95.3578 523.429 95.3578C519.142 95.3578 515.667 98.8328 515.667 103.119L515.667 160.555C515.667 164.842 512.192 168.317 507.906 168.317C503.619 168.317 500.144 164.842 500.144 160.555V117.09C500.144 112.804 496.669 109.329 492.383 109.329C488.096 109.329 484.621 112.804 484.621 117.09V151.242C484.621 155.528 481.146 159.003 476.859 159.003C472.573 159.003 469.098 155.528 469.098 151.241V16.1893Z"/>
</mask>
<path fill-rule="evenodd" clip-rule="evenodd" d="M469.098 16.1893C469.098 7.61601 476.048 0.666016 484.621 0.666016H500.144H515.667H531.191H546.714H562.237C570.81 0.666016 577.76 7.61601 577.76 16.1893V151.241C577.76 155.528 574.285 159.003 569.999 159.003C565.712 159.003 562.237 155.528 562.237 151.242V138.823C562.237 134.536 558.762 131.061 554.476 131.061C550.189 131.061 546.714 134.536 546.714 138.823V190.05C546.714 194.336 543.239 197.811 538.952 197.811C534.666 197.811 531.191 194.336 531.191 190.05L531.191 103.119C531.191 98.8328 527.716 95.3578 523.429 95.3578C519.142 95.3578 515.667 98.8328 515.667 103.119L515.667 160.555C515.667 164.842 512.192 168.317 507.906 168.317C503.619 168.317 500.144 164.842 500.144 160.555V117.09C500.144 112.804 496.669 109.329 492.383 109.329C488.096 109.329 484.621 112.804 484.621 117.09V151.242C484.621 155.528 481.146 159.003 476.859 159.003C472.573 159.003 469.098 155.528 469.098 151.241V16.1893Z" fill="#FCA311"/>
<path d="M515.667 103.119L514.115 103.119L515.667 103.119ZM531.191 103.119H529.638H531.191ZM500.144 -0.886309H484.621V2.21834H500.144V-0.886309ZM515.667 -0.886309H500.144V2.21834H515.667V-0.886309ZM531.191 -0.886309H515.667V2.21834H531.191V-0.886309ZM546.714 -0.886309H531.191V2.21834H546.714V-0.886309ZM562.237 -0.886309H546.714V2.21834H562.237V-0.886309ZM576.208 16.1893V151.241H579.313V16.1893H576.208ZM563.789 151.242V138.823H560.685V151.242H563.789ZM548.266 190.05V138.823H545.162V190.05H548.266ZM529.638 103.119V190.05H532.743V103.119H529.638ZM517.22 160.555V103.119L514.115 103.119V160.555H517.22ZM498.592 117.09V160.555H501.696V117.09H498.592ZM486.173 151.242V117.09H483.069V151.242H486.173ZM467.545 16.1893V151.241H470.65V16.1893H467.545ZM476.859 157.451C473.43 157.451 470.65 154.671 470.65 151.241H467.545C467.545 156.385 471.715 160.555 476.859 160.555V157.451ZM483.069 151.242C483.069 154.671 480.289 157.451 476.859 157.451V160.555C482.003 160.555 486.173 156.385 486.173 151.242H483.069ZM492.383 107.776C487.239 107.776 483.069 111.946 483.069 117.09H486.173C486.173 113.661 488.953 110.881 492.383 110.881V107.776ZM501.696 117.09C501.696 111.946 497.526 107.776 492.383 107.776V110.881C495.812 110.881 498.592 113.661 498.592 117.09H501.696ZM507.906 166.765C504.476 166.765 501.696 163.985 501.696 160.555H498.592C498.592 165.699 502.762 169.869 507.906 169.869V166.765ZM514.115 160.555C514.115 163.985 511.335 166.765 507.906 166.765V169.869C513.05 169.869 517.22 165.699 517.22 160.555H514.115ZM523.429 93.8055C518.285 93.8055 514.115 97.9755 514.115 103.119L517.22 103.119C517.22 99.6901 520 96.9101 523.429 96.9101V93.8055ZM532.743 103.119C532.743 97.9755 528.573 93.8055 523.429 93.8055V96.9101C526.858 96.9101 529.638 99.6901 529.638 103.119H532.743ZM538.952 196.259C535.523 196.259 532.743 193.479 532.743 190.05H529.638C529.638 195.194 533.808 199.364 538.952 199.364V196.259ZM554.476 129.509C549.332 129.509 545.162 133.679 545.162 138.823H548.266C548.266 135.394 551.046 132.614 554.476 132.614V129.509ZM563.789 138.823C563.789 133.679 559.619 129.509 554.476 129.509V132.614C557.905 132.614 560.685 135.394 560.685 138.823H563.789ZM569.999 157.451C566.569 157.451 563.789 154.671 563.789 151.242H560.685C560.685 156.385 564.855 160.555 569.999 160.555V157.451ZM576.208 151.241C576.208 154.671 573.428 157.451 569.999 157.451V160.555C575.143 160.555 579.313 156.385 579.313 151.241H576.208ZM562.237 2.21834C569.953 2.21834 576.208 8.47334 576.208 16.1893H579.313C579.313 6.75869 571.668 -0.886309 562.237 -0.886309V2.21834ZM545.162 190.05C545.162 193.479 542.382 196.259 538.952 196.259V199.364C544.096 199.364 548.266 195.194 548.266 190.05H545.162ZM484.621 -0.886309C475.19 -0.886309 467.545 6.75869 467.545 16.1893H470.65C470.65 8.47334 476.905 2.21834 484.621 2.21834V-0.886309Z" fill="#001D3D" mask="url(#path-20-inside-2_176_666)"/>
</mask>
<g mask="url(#mask0_176_666)">
<path d="M294.629 519.688C304.117 389.396 340.307 267.34 397.209 160.076C410.05 135.869 423.945 112.416 438.827 89.7915C448.746 74.7137 459.101 60.004 469.874 45.6846C480.647 60.004 491.002 74.7137 500.92 89.7915C515.802 112.416 529.698 135.869 542.539 160.076C599.21 266.905 635.337 388.406 645.002 518.101C646.733 541.323 647.615 564.807 647.615 588.517C647.615 596.588 647.513 604.633 647.31 612.65C646.692 637.024 645.142 661.143 642.697 684.966C638.015 730.581 630.052 775.109 619.073 818.261H596.605H556.98H382.767H342.031H320.674C309.819 775.595 301.912 731.583 297.21 686.507C294.622 661.691 293.004 636.553 292.401 611.139C292.223 603.622 292.133 596.081 292.133 588.517C292.133 565.347 292.975 542.392 294.629 519.688Z" fill="#001D3D" stroke="#001D3D" stroke-width="31.0465"/>
</g>
<path d="M370.813 510.705L370.813 510.705C375.037 522.839 381.455 533.929 389.58 543.505L389.58 543.506C408.491 565.795 436.759 579.981 468.324 579.981C499.803 579.981 528.004 565.871 546.915 543.685L535.101 533.615L546.915 543.685C555.535 533.571 562.247 521.758 566.475 508.806L566.475 508.806C569.774 498.696 571.553 487.916 571.553 476.751C571.553 438.414 550.647 404.978 519.687 387.19C504.547 378.491 486.992 373.522 468.324 373.522C454.549 373.522 441.368 376.228 429.312 381.152C391.666 396.527 365.094 433.518 365.094 476.751C365.094 488.62 367.104 500.052 370.813 510.705Z" fill="#A0D2FF" stroke="#001219" stroke-width="31.0465"/>
<path d="M469.878 541.173C486.484 541.173 501.69 535.178 513.45 525.235C520.316 519.431 526.007 512.281 530.117 504.192C534.777 495.02 537.404 484.64 537.404 473.647C537.404 470.218 537.148 466.848 536.655 463.557C534.158 480.219 525.575 494.89 513.239 505.234C506.476 510.905 498.584 515.275 489.95 517.959C483.608 519.931 476.867 520.993 469.878 520.993C461.942 520.993 454.328 519.624 447.255 517.11C440.506 514.711 434.251 511.268 428.684 506.977C415.19 496.573 405.74 481.178 403.1 463.557C402.607 466.848 402.352 470.218 402.352 473.647C402.352 485.278 405.292 496.223 410.471 505.778C414.233 512.718 419.176 518.926 425.031 524.131C436.957 534.733 452.665 541.173 469.878 541.173Z" fill="#106CC1"/>
<circle cx="230.043" cy="380.988" r="7.76162" fill="#E5E5E5"/>
<circle cx="204.432" cy="437.647" r="16.2994" fill="#E5E5E5"/>
<circle cx="191.236" cy="514.488" r="21.7325" fill="#E5E5E5"/>
<circle cx="809.062" cy="941.377" r="7.76162" fill="#E5E5E5"/>
<circle cx="814.495" cy="864.538" r="16.2994" fill="#E5E5E5"/>
<circle cx="809.061" cy="773.727" r="21.7325" fill="#E5E5E5"/>
</svg>
