<svg width="42" height="30" viewBox="0 0 42 30" fill="none" xmlns="http://www.w3.org/2000/svg">
<g clip-path="url(#clip0_294_222)">
<path fill-rule="evenodd" clip-rule="evenodd" d="M37.3877 1.10492C39.2204 1.60892 40.6408 3.02929 41.1448 4.86202C42.0153 8.16093 42.0153 15.0337 42.0153 15.0337C42.0153 15.0337 42.0153 21.9064 41.1448 25.2053C40.6408 27.038 39.2204 28.4584 37.3877 28.9624C34.1346 29.8329 20.9847 29.8329 20.9847 29.8329C20.9847 29.8329 7.88073 29.8329 4.58182 28.9624C2.79491 28.4584 1.37455 27.038 0.870546 25.2053C0 21.9064 0 15.0337 0 15.0337C0 15.0337 0 8.16093 0.870546 4.86202C1.37455 3.02929 2.79491 1.60892 4.58182 1.10492C7.88073 0.234375 20.9847 0.234375 20.9847 0.234375C20.9847 0.234375 34.1346 0.234375 37.3877 1.10492ZM27.72 14.9878L16.7237 21.2191V8.75656L27.72 14.9878Z" fill="white"/>
</g>
<defs>
<clipPath id="clip0_294_222">
<rect width="42" height="30" fill="white"/>
</clipPath>
</defs>
</svg>
