<svg xmlns="http://www.w3.org/2000/svg" viewBox="0 0 430 217"><g fill="#000" fill-rule="evenodd"><path d="M125.96 159.548c-1.163 0-2.315-.392-3.17-1.181a4.55 4.55 0 0 1-1.164-5.003l28.23-72.483v1.106l-.233 77.148a.421.421 0 0 1-.422.413h-23.24Zm27.337 55.997.242-79.359c0-.117.1-.213.217-.213h24.546c1.168 0 2.32.392 3.175 1.19a4.545 4.545 0 0 1 1.156 5.01l-29.336 74.52v-1.148Zm136.422-56.022a42.74 42.74 0 0 1-16.852-3.43 42.119 42.119 0 0 1-4.385-2.19c-12.35-7.114-19.723-19.527-19.723-33.213 0-13.677 7.373-26.094 19.723-33.208 6.384-3.672 13.727-5.616 21.237-5.616a43.165 43.165 0 0 1 11.54 1.565c.143.041.28.1.406.183l.025.017.03.012c1.063.33 2.002.685 2.79 1.052.568.263.935.83.935 1.448v22.935a.95.95 0 0 1-.947.947.933.933 0 0 1-.634-.254c-3.25-3.054-8.683-5.107-13.523-5.107-.204 0-.413 0-.613.012-9.476.35-16.907 7.377-16.923 15.985v.12c.033 5.967 3.646 11.379 9.433 14.116.075.038.15.054.234.054a.563.563 0 0 0 .555-.559v-10.681a4.094 4.094 0 0 1 4.089-4.093h16.856c.814 0 1.473.659 1.473 1.473v34.15a1.61 1.61 0 0 1-.934 1.453c-.793.367-1.732.722-2.792 1.051l-.029.009-.025.016a1.41 1.41 0 0 1-.405.184 43.165 43.165 0 0 1-10.368 1.548c-.392.012-.784.02-1.173.02Zm101.453-77.657c10.393 0 20.144 4.01 27.454 11.29C425.961 100.458 430 110.238 430 120.69c0 10.456-4.039 20.236-11.374 27.542-7.31 7.281-17.061 11.29-27.454 11.29h-17.35a1.733 1.733 0 0 1-1.73-1.73V83.596c0-.955.775-1.731 1.73-1.731h17.35Zm3.471 24.304c-.146 0-.271.134-.271.284v28.477c0 .154.125.283.271.283 7.573-.692 13.264-6.934 13.264-14.524 0-7.585-5.691-13.827-13.235-14.516l-.029-.004Zm-81.633 53.353c-.705 0-1.281-.58-1.281-1.285V83.91c0-1.126.914-2.044 2.044-2.044h50.203c.934 0 1.702.763 1.702 1.702v20.028a.795.795 0 0 1-.793.792h-29.181c-.564 0-1.023.46-1.023 1.023v6.108c0 .2.163.363.363.363h29.733c.496 0 .901.405.901.901v16.377c0 .663-.538 1.202-1.206 1.202h-28.777c-.559 0-1.014.455-1.014 1.018v5.457c0 .564.46 1.023 1.023 1.023h29.052c.51 0 .922.413.922.922v19.935a.808.808 0 0 1-.805.806H313.01Z"></path><path d="M209.321 81.866c19.94 0 30.388 7.456 33.872 24.179 1.777 8.516-1.072 18.133-6.922 23.378a.997.997 0 0 0-.334.688.959.959 0 0 0 .246.693c5.345 5.9 18.534 20.925 23.958 27.112a.968.968 0 0 1-.734 1.607H231.31a3.21 3.21 0 0 1-2.45-1.135l-12.25-14.115c-.892-1.06-2.353-2.333-4.18-2.333-.3 0-.61.034-.914.104l-.167.038v16.364c0 .593-.48 1.077-1.072 1.077h-21.384a1.791 1.791 0 0 1-1.786-1.79V84.086c0-1.223.993-2.22 2.22-2.22h19.994Zm2.45 24.246h-.422v14.365h.422c3.96 0 7.184-3.225 7.184-7.18 0-3.964-3.225-7.185-7.184-7.185Zm-119.248 53.41a.861.861 0 0 1-.86-.859V132.74a.787.787 0 0 0-.788-.784h-5.428c-.764 0-1.39.621-1.39 1.389v25.318c0 .472-.384.86-.86.86H61.865a2.057 2.057 0 0 1-2.053-2.053V82.817c0-.526.43-.951.956-.951h20.925a2.366 2.366 0 0 1 2.365 2.361v24.376c0 .454.372.826.83.826h5.959c.45 0 .818-.363.818-.814V82.8c0-.513.417-.934.934-.934h21.008a2.3 2.3 0 0 1 2.303 2.295v74.502c0 .472-.392.86-.863.86H92.523Zm-51.562 0C18.375 159.523 0 142.103 0 120.69c0-21.409 18.375-38.824 40.96-38.824 3.923 0 7.803.526 11.541 1.564.639.176 1.081.768 1.081 1.436v23.01a.946.946 0 0 1-.947.948.927.927 0 0 1-.593-.217c-3.079-2.537-7.013-3.93-11.081-3.93-9.33 0-16.915 7.184-16.915 16.013 0 8.837 7.585 16.022 16.915 16.022 4.072 0 8.01-1.402 11.09-3.939a.919.919 0 0 1 .592-.217.94.94 0 0 1 .94.94v23.018c0 .672-.443 1.265-1.082 1.44a43.09 43.09 0 0 1-11.54 1.569Zm191.777-81.628a.932.932 0 0 1-.934-.93V44.39c0-1.999-.593-3.947-1.707-5.641l-22.69-37.473a.833.833 0 0 1-.012-.847.827.827 0 0 1 .734-.43l24.455.117c.613 0 1.193.334 1.506.868l10.106 17.178 9.68-17.195a1.91 1.91 0 0 1 1.66-.968h23.336c.305 0 .576.159.73.426.15.263.15.58-.008.839l-22.122 37.651a10.234 10.234 0 0 0-1.777 5.742v32.307c0 .513-.417.93-.93.93h-22.027Zm-111.324.004a1.073 1.073 0 0 1-1.068-1.068V1.076a1.08 1.08 0 0 1 1.08-1.077l22.035.113a1.581 1.581 0 0 1 1.569 1.573v52.648c0 .375.309.684.684.684h21.96c1.372 0 2.482 1.06 2.482 2.366v19.606c0 .538-.438.98-.98.98l-47.762-.07Z"></path><path d="M176.999 77.777c-.584 0-1.064-.48-1.064-1.064V1.068c0-.589.48-1.069 1.072-1.069l22.043.113a1.581 1.581 0 0 1 1.569 1.573v52.656c0 .371.3.676.676.676h21.972c1.368 0 2.478 1.06 2.478 2.366v19.852c0 .405-.33.734-.734.734l-48.012-.192Zm-90.558.155c-15.054 0-27.304-11.737-27.304-26.161V1.097c0-.601.492-1.093 1.093-1.093l21.763.112c.601 0 1.093.493 1.093 1.098v48.504c0 .263.05.672.109.884.53 1.882 2.24 2.55 3.542 2.55 1.302 0 3.013-.668 3.538-2.55.063-.212.113-.621.113-.884V1.097c0-.601.492-1.093 1.097-1.093l21.764.112c.6 0 1.089.493 1.089 1.098v49.998c0 14.711-12.497 26.703-27.855 26.72h-.042Zm-86.44-.155V3.3A3.184 3.184 0 0 1 3.181.12h48.888A1.02 1.02 0 0 1 53.09 1.14v20.015c0 1.055-.864 1.919-1.92 1.919H23.994a.61.61 0 0 0-.61.609v6.146c0 .334.276.61.61.61h28.084c.56 0 1.014.454 1.014 1.017v17.791a2.254 2.254 0 0 1-2.253 2.253H24.493c-.613 0-1.118.501-1.122 1.11l-.054 25.168H0ZM354.473 174.708l-12.368 36.995h-5.548l-10.096-29.545-10.093 29.545h-5.655l-12.367-36.995h5.443l9.988 30.072 10.413-30.072h4.862l10.2 30.229 10.2-30.229zM285.757 205.572a13.565 13.565 0 0 0 5.128-5.1c1.25-2.167 1.875-4.589 1.875-7.267 0-2.676-.626-5.1-1.875-7.267a13.585 13.585 0 0 0-5.128-5.1c-2.167-1.233-4.607-1.85-7.32-1.85s-5.169.617-7.37 1.85c-2.204 1.235-3.931 2.933-5.181 5.1-1.252 2.167-1.877 4.59-1.877 7.267 0 2.678.625 5.1 1.877 7.267 1.25 2.168 2.977 3.866 5.18 5.1 2.202 1.235 4.658 1.85 7.372 1.85 2.712 0 5.152-.615 7.32-1.85m-17.415 4.096c-2.994-1.637-5.346-3.902-7.055-6.79-1.71-2.89-2.564-6.114-2.564-9.673 0-3.558.854-6.783 2.564-9.672 1.709-2.889 4.06-5.153 7.055-6.791 2.995-1.639 6.36-2.458 10.095-2.458 3.7 0 7.047.82 10.041 2.458 2.995 1.638 5.338 3.893 7.03 6.765 1.692 2.872 2.536 6.104 2.536 9.698 0 3.593-.844 6.827-2.535 9.698-1.693 2.872-4.036 5.128-7.03 6.765-2.995 1.638-6.343 2.457-10.042 2.457-3.735 0-7.1-.82-10.095-2.457M253.069 174.708v36.995h-5.285v-16.491h-21.245v16.491h-5.286v-36.995h5.286v15.908h21.245v-15.908zM193.602 210.83c-2.59-.862-4.624-1.981-6.104-3.355l1.956-4.123c1.408 1.269 3.215 2.3 5.417 3.092a19.902 19.902 0 0 0 6.791 1.19c3.065 0 5.356-.521 6.87-1.56 1.515-1.039 2.273-2.421 2.273-4.149 0-1.268-.414-2.299-1.242-3.092-.827-.792-1.85-1.4-3.065-1.824-1.216-.422-2.933-.897-5.153-1.426-2.783-.669-5.03-1.34-6.738-2.008a11.129 11.129 0 0 1-4.387-3.092c-1.216-1.392-1.823-3.267-1.823-5.629 0-1.973.52-3.752 1.559-5.337 1.039-1.586 2.616-2.854 4.73-3.806 2.114-.951 4.738-1.427 7.875-1.427 2.184 0 4.333.283 6.447.846s3.93 1.374 5.444 2.431l-1.744 4.228a19.134 19.134 0 0 0-4.968-2.246c-1.762-.51-3.488-.766-5.18-.766-2.994 0-5.24.546-6.738 1.638-1.498 1.092-2.246 2.502-2.246 4.228 0 1.269.423 2.3 1.268 3.092.846.793 1.895 1.409 3.145 1.85 1.25.44 2.951.908 5.1 1.399 2.783.672 5.02 1.34 6.712 2.01a11.294 11.294 0 0 1 4.36 3.065c1.216 1.374 1.824 3.224 1.824 5.55 0 1.938-.529 3.707-1.586 5.31-1.057 1.604-2.66 2.873-4.81 3.806-2.148.934-4.79 1.4-7.927 1.4-2.784 0-5.47-.43-8.06-1.294"></path></g></svg>